<svg width="80" height="78" viewBox="0 0 80 78" fill="none" xmlns="http://www.w3.org/2000/svg">
<ellipse cx="40.2646" cy="39" rx="38.5" ry="39" fill="#843600"/>
<path fill-rule="evenodd" clip-rule="evenodd" d="M26.8334 1.52286C21.1804 4.04886 20.4404 4.98487 22.3944 7.14287C23.3184 8.16487 25.0824 8.99986 26.3144 8.99986C27.5454 8.99986 31.5624 9.92886 35.2404 11.0649C40.9544 12.8299 42.6644 12.9729 46.9914 12.0449C49.7774 11.4469 52.2554 11.1579 52.4994 11.4009C52.7424 11.6449 51.7774 13.5589 50.3534 15.6539C47.6054 19.6989 47.0824 24.0749 48.8054 28.6069C50.3294 32.6159 49.3874 34.3949 46.5294 32.9079C45.2834 32.2589 43.4184 30.8449 42.3834 29.7659C40.1414 27.4259 35.3474 27.9719 32.4174 30.9019C30.2734 33.0469 30.9454 34.9689 35.2514 38.9999C37.6484 41.2439 38.9104 41.5359 47.5934 41.8479C52.9124 42.0389 57.8274 42.6559 58.5144 43.2199C59.2024 43.7839 59.7644 45.9189 59.7644 47.9659C59.7644 51.1759 59.1124 52.2369 55.0144 55.6949C52.2654 58.0139 49.7064 61.2519 48.9394 63.3799C47.7584 66.6569 47.8214 67.4089 49.5174 70.2789C51.1984 73.1249 51.9094 73.4899 55.6154 73.4119C61.3264 73.2919 67.0234 69.0149 72.9994 60.3579C76.9834 54.5869 77.9094 52.3369 78.8404 46.1599C81.5694 28.0519 73.3264 11.3449 57.9154 3.74986C51.9104 0.78986 50.3804 0.476856 40.7924 0.244856C33.0404 0.0568557 29.3594 0.393856 26.8334 1.52286ZM13.4104 10.0059C1.52141 20.4449 -2.57158 39.8489 4.06042 54.3359C7.40442 61.6399 16.5724 71.2858 23.1684 74.4408C30.9454 78.1608 47.4024 78.8349 48.4054 75.4739C48.9584 73.6239 45.8654 70.7679 42.5704 70.0849C39.3684 69.4219 39.2644 69.2459 39.2644 64.4639C39.2644 60.0649 38.9654 59.3839 36.5144 58.2089C34.3304 57.1619 33.7644 56.2069 33.7644 53.5679C33.7644 51.7399 34.4394 49.6849 35.2644 48.9999C36.0894 48.3149 36.7644 47.1579 36.7644 46.4279C36.7644 44.6769 30.7894 40.1169 24.4114 36.9999C15.2424 32.5199 10.4534 23.4629 14.2134 17.7149C16.7904 13.7739 18.7864 8.13187 17.8154 7.53087C17.3034 7.21487 15.3214 8.32786 13.4104 10.0059Z" fill="#2A0000"/>
</svg>
